<svg xmlns="http://www.w3.org/2000/svg" viewBox="0 0 128 128" role="img" aria-labelledby="title">
  <title id="title">ReadSlot</title>
  <rect width="128" height="128" rx="28" fill="#5B43E6"/>
  <path d="M17 34c15-5 29-2 41 6v55c-12-8-26-10-41-5V34Z" fill="#fff"/>
  <path d="M27 48c8-1 15 0 22 4v7c-7-4-14-5-22-4v-7Zm0 18c8-1 15 0 22 4v7c-7-4-14-5-22-4v-7Z" fill="#5B43E6"/>
  <rect x="61" y="27" width="50" height="70" rx="11" fill="#fff"/>
  <path d="M61 47h50" stroke="#5B43E6" stroke-width="7"/>
  <path d="M75 23v12m22-12v12" stroke="#fff" stroke-width="7" stroke-linecap="round"/>
  <rect x="71" y="58" width="12" height="11" rx="3" fill="#D9D3FA"/>
  <rect x="89" y="58" width="12" height="11" rx="3" fill="#D9D3FA"/>
  <rect x="71" y="76" width="30" height="12" rx="4" fill="#C9F56B"/>
</svg>
